<svg width="43" height="30" viewBox="0 0 43 30" fill="none" xmlns="http://www.w3.org/2000/svg">
<path d="M12.9138 13.8788C13.7135 11.8333 16.781 9.73066 19.7652 9.18249L38.3701 5.76491C41.3543 5.21674 43.1252 6.43057 42.3254 8.47608L37.3395 21.2287C36.5398 23.2742 33.4723 25.3768 30.4881 25.925L11.8832 29.3426C8.89897 29.8908 7.12811 28.6769 7.92785 26.6314L12.9138 13.8788Z" fill="#737373"/>
<path d="M5.45515 8.76623C6.25488 6.72071 9.32238 4.61812 12.3066 4.06994L30.9115 0.65236C33.8957 0.104184 35.6666 1.31802 34.8668 3.36353L29.8809 16.1162C29.0812 18.1617 26.0137 20.2643 23.0295 20.8125L4.42457 24.23C1.44036 24.7782 -0.330509 23.5644 0.469228 21.5189L5.45515 8.76623Z" fill="#FAFAF9"/>
</svg>
