<svg width="798" height="996" viewBox="0 0 798 996" fill="none" xmlns="http://www.w3.org/2000/svg">
<path opacity="0.25" d="M498 0L498.521 488.054L550.055 2.72809L499.558 488.163L601.54 10.8825L500.578 488.379L651.89 24.3738L501.569 488.702L700.555 43.0544L502.522 489.126L747 66.7194L503.425 489.647L790.717 95.1095L504.268 490.26L831.227 127.914L505.043 490.957L868.086 164.773L505.74 491.732L900.891 205.283L506.353 492.575L929.281 249L506.874 493.478L952.946 295.445L507.298 494.431L971.626 344.11L507.621 495.422L985.117 394.46L507.837 496.442L993.272 445.945L507.946 497.479L996 498L507.946 498.521L993.272 550.055L507.837 499.558L985.117 601.54L507.621 500.578L971.626 651.89L507.298 501.569L952.946 700.555L506.874 502.522L929.281 747L506.353 503.425L900.891 790.717L505.74 504.268L868.086 831.227L505.043 505.043L831.227 868.086L504.268 505.74L790.717 900.891L503.425 506.353L747 929.281L502.522 506.874L700.555 952.946L501.569 507.298L651.89 971.626L500.578 507.621L601.54 985.117L499.558 507.837L550.055 993.272L498.521 507.946L498 996L497.479 507.946L445.945 993.272L496.442 507.837L394.46 985.117L495.422 507.621L344.11 971.626L494.431 507.298L295.445 952.946L493.478 506.874L249 929.281L492.575 506.353L205.283 900.891L491.732 505.74L164.773 868.086L490.957 505.043L127.914 831.227L490.26 504.268L95.1095 790.717L489.647 503.425L66.7194 747L489.126 502.522L43.0544 700.555L488.702 501.569L24.3738 651.89L488.379 500.578L10.8825 601.54L488.163 499.558L2.72809 550.055L488.054 498.521L0 498L488.054 497.479L2.72809 445.945L488.163 496.442L10.8825 394.46L488.379 495.422L24.3738 344.11L488.702 494.431L43.0544 295.445L489.126 493.478L66.7194 249L489.647 492.575L95.1095 205.283L490.26 491.732L127.914 164.773L490.957 490.957L164.773 127.914L491.732 490.26L205.283 95.1095L492.575 489.647L249 66.7194L493.478 489.126L295.445 43.0544L494.431 488.702L344.11 24.3738L495.422 488.379L394.46 10.8825L496.442 488.163L445.945 2.72809L497.479 488.054L498 0Z" fill="#FFD6AE"/>
</svg>
